<svg width="147" height="31" viewBox="0 0 147 31" fill="none" xmlns="http://www.w3.org/2000/svg">
<path d="M7.14062 2.9375V7.09375H10.0312V10.4062H7.14062V18.8438C7.14062 19.4688 7.26042 19.9167 7.5 20.1875C7.73958 20.4583 8.19792 20.5938 8.875 20.5938C9.375 20.5938 9.81771 20.5573 10.2031 20.4844V23.9062C9.31771 24.1771 8.40625 24.3125 7.46875 24.3125C4.30208 24.3125 2.6875 22.7135 2.625 19.5156V10.4062H0.15625V7.09375H2.625V2.9375H7.14062ZM16.7031 7.09375L16.8438 9.04688C18.0521 7.53646 19.6719 6.78125 21.7031 6.78125C23.4948 6.78125 24.8281 7.30729 25.7031 8.35938C26.5781 9.41146 27.026 10.9844 27.0469 13.0781V24H22.5312V13.1875C22.5312 12.2292 22.3229 11.5365 21.9062 11.1094C21.4896 10.6719 20.7969 10.4531 19.8281 10.4531C18.5573 10.4531 17.6042 10.9948 16.9688 12.0781V24H12.4531V7.09375H16.7031ZM30.7188 21.7812C30.7188 21.0625 30.9583 20.4792 31.4375 20.0312C31.9271 19.5833 32.5365 19.3594 33.2656 19.3594C34.0052 19.3594 34.6146 19.5833 35.0938 20.0312C35.5833 20.4792 35.8281 21.0625 35.8281 21.7812C35.8281 22.4896 35.5885 23.0677 35.1094 23.5156C34.6302 23.9531 34.0156 24.1719 33.2656 24.1719C32.526 24.1719 31.9167 23.9531 31.4375 23.5156C30.9583 23.0677 30.7188 22.4896 30.7188 21.7812ZM43.9531 7.09375L44.0938 9.04688C45.3021 7.53646 46.9219 6.78125 48.9531 6.78125C50.7448 6.78125 52.0781 7.30729 52.9531 8.35938C53.8281 9.41146 54.276 10.9844 54.2969 13.0781V24H49.7812V13.1875C49.7812 12.2292 49.5729 11.5365 49.1562 11.1094C48.7396 10.6719 48.0469 10.4531 47.0781 10.4531C45.8073 10.4531 44.8542 10.9948 44.2188 12.0781V24H39.7031V7.09375H43.9531ZM64.0469 17.6094L67.1719 7.09375H72.0156L65.2188 26.625L64.8438 27.5156C63.8333 29.724 62.1667 30.8281 59.8438 30.8281C59.1875 30.8281 58.5208 30.7292 57.8438 30.5312V27.1094L58.5312 27.125C59.3854 27.125 60.0208 26.9948 60.4375 26.7344C60.8646 26.474 61.1979 26.0417 61.4375 25.4375L61.9688 24.0469L56.0469 7.09375H60.9062L64.0469 17.6094ZM78.2031 8.9375C79.401 7.5 80.9062 6.78125 82.7188 6.78125C86.3854 6.78125 88.2448 8.91146 88.2969 13.1719V24H83.7812V13.2969C83.7812 12.3281 83.5729 11.6146 83.1562 11.1562C82.7396 10.6875 82.0469 10.4531 81.0781 10.4531C79.7552 10.4531 78.7969 10.9635 78.2031 11.9844V24H73.6875V0H78.2031V8.9375ZM99.4844 24.3125C97.0052 24.3125 94.9844 23.5521 93.4219 22.0312C91.8698 20.5104 91.0938 18.4844 91.0938 15.9531V15.5156C91.0938 13.8177 91.4219 12.3021 92.0781 10.9688C92.7344 9.625 93.6615 8.59375 94.8594 7.875C96.0677 7.14583 97.4427 6.78125 98.9844 6.78125C101.297 6.78125 103.115 7.51042 104.438 8.96875C105.771 10.4271 106.438 12.4948 106.438 15.1719V17.0156H95.6719C95.8177 18.1198 96.2552 19.0052 96.9844 19.6719C97.724 20.3385 98.6562 20.6719 99.7812 20.6719C101.521 20.6719 102.88 20.0417 103.859 18.7812L106.078 21.2656C105.401 22.224 104.484 22.974 103.328 23.5156C102.172 24.0469 100.891 24.3125 99.4844 24.3125ZM98.9688 10.4375C98.0729 10.4375 97.3438 10.7396 96.7812 11.3438C96.2292 11.9479 95.875 12.8125 95.7188 13.9375H102V13.5781C101.979 12.5781 101.708 11.8073 101.188 11.2656C100.667 10.7135 99.9271 10.4375 98.9688 10.4375ZM114.422 2.9375V7.09375H117.312V10.4062H114.422V18.8438C114.422 19.4688 114.542 19.9167 114.781 20.1875C115.021 20.4583 115.479 20.5938 116.156 20.5938C116.656 20.5938 117.099 20.5573 117.484 20.4844V23.9062C116.599 24.1771 115.688 24.3125 114.75 24.3125C111.583 24.3125 109.969 22.7135 109.906 19.5156V10.4062H107.438V7.09375H109.906V2.9375H114.422ZM127.609 24.3125C125.13 24.3125 123.109 23.5521 121.547 22.0312C119.995 20.5104 119.219 18.4844 119.219 15.9531V15.5156C119.219 13.8177 119.547 12.3021 120.203 10.9688C120.859 9.625 121.786 8.59375 122.984 7.875C124.193 7.14583 125.568 6.78125 127.109 6.78125C129.422 6.78125 131.24 7.51042 132.562 8.96875C133.896 10.4271 134.562 12.4948 134.562 15.1719V17.0156H123.797C123.943 18.1198 124.38 19.0052 125.109 19.6719C125.849 20.3385 126.781 20.6719 127.906 20.6719C129.646 20.6719 131.005 20.0417 131.984 18.7812L134.203 21.2656C133.526 22.224 132.609 22.974 131.453 23.5156C130.297 24.0469 129.016 24.3125 127.609 24.3125ZM127.094 10.4375C126.198 10.4375 125.469 10.7396 124.906 11.3438C124.354 11.9479 124 12.8125 123.844 13.9375H130.125V13.5781C130.104 12.5781 129.833 11.8073 129.312 11.2656C128.792 10.7135 128.052 10.4375 127.094 10.4375ZM146.641 11.3281C146.026 11.2448 145.484 11.2031 145.016 11.2031C143.307 11.2031 142.188 11.7812 141.656 12.9375V24H137.141V7.09375H141.406L141.531 9.10938C142.438 7.55729 143.693 6.78125 145.297 6.78125C145.797 6.78125 146.266 6.84896 146.703 6.98438L146.641 11.3281Z" fill="#E1E1E6"/>
</svg>
