<svg width="143" height="31" viewBox="0 0 143 31" fill="none" xmlns="http://www.w3.org/2000/svg">
<path d="M7.14062 2.9375V7.09375H10.0312V10.4062H7.14062V18.8438C7.14062 19.4688 7.26042 19.9167 7.5 20.1875C7.73958 20.4583 8.19792 20.5938 8.875 20.5938C9.375 20.5938 9.81771 20.5573 10.2031 20.4844V23.9062C9.31771 24.1771 8.40625 24.3125 7.46875 24.3125C4.30208 24.3125 2.6875 22.7135 2.625 19.5156V10.4062H0.15625V7.09375H2.625V2.9375H7.14062ZM16.7031 7.09375L16.8438 9.04688C18.0521 7.53646 19.6719 6.78125 21.7031 6.78125C23.4948 6.78125 24.8281 7.30729 25.7031 8.35938C26.5781 9.41146 27.026 10.9844 27.0469 13.0781V24H22.5312V13.1875C22.5312 12.2292 22.3229 11.5365 21.9062 11.1094C21.4896 10.6719 20.7969 10.4531 19.8281 10.4531C18.5573 10.4531 17.6042 10.9948 16.9688 12.0781V24H12.4531V7.09375H16.7031ZM49.2812 24H44.5938L35.4688 9.03125V24H30.7812V1.25H35.4688L44.6094 16.25V1.25H49.2812V24ZM59.3906 17.6094L62.5156 7.09375H67.3594L60.5625 26.625L60.1875 27.5156C59.1771 29.724 57.5104 30.8281 55.1875 30.8281C54.5312 30.8281 53.8646 30.7292 53.1875 30.5312V27.1094L53.875 27.125C54.7292 27.125 55.3646 26.9948 55.7812 26.7344C56.2083 26.474 56.5417 26.0417 56.7812 25.4375L57.3125 24.0469L51.3906 7.09375H56.25L59.3906 17.6094ZM73.5469 8.9375C74.7448 7.5 76.25 6.78125 78.0625 6.78125C81.7292 6.78125 83.5885 8.91146 83.6406 13.1719V24H79.125V13.2969C79.125 12.3281 78.9167 11.6146 78.5 11.1562C78.0833 10.6875 77.3906 10.4531 76.4219 10.4531C75.099 10.4531 74.1406 10.9635 73.5469 11.9844V24H69.0312V0H73.5469V8.9375ZM94.8281 24.3125C92.349 24.3125 90.3281 23.5521 88.7656 22.0312C87.2135 20.5104 86.4375 18.4844 86.4375 15.9531V15.5156C86.4375 13.8177 86.7656 12.3021 87.4219 10.9688C88.0781 9.625 89.0052 8.59375 90.2031 7.875C91.4115 7.14583 92.7865 6.78125 94.3281 6.78125C96.6406 6.78125 98.4583 7.51042 99.7812 8.96875C101.115 10.4271 101.781 12.4948 101.781 15.1719V17.0156H91.0156C91.1615 18.1198 91.599 19.0052 92.3281 19.6719C93.0677 20.3385 94 20.6719 95.125 20.6719C96.8646 20.6719 98.224 20.0417 99.2031 18.7812L101.422 21.2656C100.745 22.224 99.8281 22.974 98.6719 23.5156C97.5156 24.0469 96.2344 24.3125 94.8281 24.3125ZM94.3125 10.4375C93.4167 10.4375 92.6875 10.7396 92.125 11.3438C91.5729 11.9479 91.2188 12.8125 91.0625 13.9375H97.3438V13.5781C97.3229 12.5781 97.0521 11.8073 96.5312 11.2656C96.0104 10.7135 95.2708 10.4375 94.3125 10.4375ZM109.766 2.9375V7.09375H112.656V10.4062H109.766V18.8438C109.766 19.4688 109.885 19.9167 110.125 20.1875C110.365 20.4583 110.823 20.5938 111.5 20.5938C112 20.5938 112.443 20.5573 112.828 20.4844V23.9062C111.943 24.1771 111.031 24.3125 110.094 24.3125C106.927 24.3125 105.312 22.7135 105.25 19.5156V10.4062H102.781V7.09375H105.25V2.9375H109.766ZM122.953 24.3125C120.474 24.3125 118.453 23.5521 116.891 22.0312C115.339 20.5104 114.562 18.4844 114.562 15.9531V15.5156C114.562 13.8177 114.891 12.3021 115.547 10.9688C116.203 9.625 117.13 8.59375 118.328 7.875C119.536 7.14583 120.911 6.78125 122.453 6.78125C124.766 6.78125 126.583 7.51042 127.906 8.96875C129.24 10.4271 129.906 12.4948 129.906 15.1719V17.0156H119.141C119.286 18.1198 119.724 19.0052 120.453 19.6719C121.193 20.3385 122.125 20.6719 123.25 20.6719C124.99 20.6719 126.349 20.0417 127.328 18.7812L129.547 21.2656C128.87 22.224 127.953 22.974 126.797 23.5156C125.641 24.0469 124.359 24.3125 122.953 24.3125ZM122.438 10.4375C121.542 10.4375 120.812 10.7396 120.25 11.3438C119.698 11.9479 119.344 12.8125 119.188 13.9375H125.469V13.5781C125.448 12.5781 125.177 11.8073 124.656 11.2656C124.135 10.7135 123.396 10.4375 122.438 10.4375ZM141.984 11.3281C141.37 11.2448 140.828 11.2031 140.359 11.2031C138.651 11.2031 137.531 11.7812 137 12.9375V24H132.484V7.09375H136.75L136.875 9.10938C137.781 7.55729 139.036 6.78125 140.641 6.78125C141.141 6.78125 141.609 6.84896 142.047 6.98438L141.984 11.3281Z" fill="#E1E1E6"/>
</svg>
